<svg width="61" height="65" viewBox="0 0 61 65" fill="none" xmlns="http://www.w3.org/2000/svg">
<path d="M46.945 27.4039C46.945 27.4039 42.0708 23.3962 39.4712 19.4969C38.4963 18.0888 35.3552 18.3054 34.272 21.0133L17.3747 27.5122L6.21821 21.5549C4.48515 20.4717 2.21052 21.2299 1.23568 23.2879C0.260836 25.2376 0.802415 27.7289 2.64379 28.812L4.37684 29.7869C2.86042 29.5702 1.23568 30.3284 0.477467 31.8449C-0.497376 33.7946 0.044204 36.2858 1.88557 37.369L5.78495 39.6436C4.05189 38.5605 1.77726 39.3187 0.802415 41.3767C-0.172428 43.3264 0.369151 45.8176 2.21052 46.9008C2.21052 46.9008 21.8157 59.0322 28.5313 62.6066C33.8388 65.5311 44.3454 66.9392 50.9527 58.9238C53.119 56.1076 46.945 27.4039 46.945 27.4039Z" fill="#D99B57"/>
<path d="M55.0687 27.4039C51.6026 25.021 49.2197 21.8798 47.4866 17.1139C46.8367 15.4892 44.4538 15.1642 43.0456 17.8721C40.9876 21.7715 42.9373 24.9127 44.0205 26.3208L44.5621 26.9707C44.5621 26.9707 44.887 28.1621 45.4286 29.5703C42.5041 28.9204 39.2546 30.5451 36.98 33.5779C34.597 36.7191 28.9646 42.1349 26.5816 45.2761C23.6571 49.0671 24.4153 54.4829 27.6648 56.8659C27.6648 56.8659 44.6704 69.3222 55.9352 54.0496C64.8171 42.1349 58.5348 29.7869 55.0687 27.4039Z" fill="#FFDD67"/>
<path d="M49.3279 31.9532C51.0609 33.253 51.4942 35.7442 50.1944 37.6939C49.0029 39.6436 46.5117 40.1852 44.7786 38.8854L17.808 19.4969C16.0749 18.1971 15.6416 15.7058 16.9414 13.7561C18.1329 11.8064 20.6242 11.2648 22.3572 12.5646L49.3279 31.9532Z" fill="#FFDD67"/>
<path d="M35.3552 29.7869L18.133 17.3306C17.1581 16.6807 16.5082 15.5975 16.8332 13.9728C15.6417 16.1391 16.3999 18.3054 17.808 19.3886L35.0302 31.8449C36.7633 33.1447 37.0882 31.0867 35.3552 29.7869Z" fill="#EBA352"/>
<path d="M40.5543 35.7443C42.2874 37.0441 42.7206 39.5353 41.4208 41.485C40.2294 43.4347 37.7381 43.9763 36.0051 42.6765L9.03439 23.1796C7.30134 21.8798 6.86807 19.3886 8.16787 17.4389C9.35934 15.4892 11.8506 14.9476 13.5837 16.2474L40.5543 35.7443Z" fill="#FFDD67"/>
<path d="M30.156 36.1775L9.35935 21.1216C8.38451 20.4717 7.73461 19.1719 8.05956 17.7638C6.86808 19.9301 7.51798 22.3131 9.0344 23.3963L29.9394 38.2355C31.5641 39.5353 31.889 37.369 30.156 36.1775Z" fill="#EBA352"/>
<path d="M38.8213 44.4095C40.5543 45.7093 40.9876 48.2006 39.6878 50.1503C38.4963 52.1 36.0051 52.6415 34.272 51.3418L7.30136 31.8449C5.56831 30.5451 5.13504 28.0538 6.43483 26.1042C7.62631 24.1545 10.1176 23.6129 11.8506 24.9127L38.8213 44.4095Z" fill="#FFDD67"/>
<path d="M26.04 43.1097L7.62628 29.8952C6.65144 29.2453 6.00154 27.7289 6.43481 26.2125C5.0267 28.2705 5.56828 30.9784 7.0847 32.0615L25.715 45.1677C27.4481 46.4675 27.773 44.4095 26.04 43.1097Z" fill="#EBA352"/>
<path d="M38.0631 54.1579C39.7961 55.4577 27.4481 56.7575 25.7151 55.4577L6.65146 41.7016C4.9184 40.4018 4.48514 37.9106 5.78493 35.9609C6.97641 34.0112 9.46767 33.4696 11.2007 34.7694L38.0631 54.1579Z" fill="#FFDD67"/>
<path d="M60.3762 42.8931C60.3762 42.8931 58.5348 52.4249 50.9527 58.1656C44.2371 63.2565 33.8388 58.8155 28.8563 55.566C23.6571 51.9916 21.0575 50.2586 8.49286 40.7268C6.10991 38.8854 5.46002 37.6939 5.78497 35.7442C3.9436 37.6939 4.91844 40.7268 6.43486 41.8099L7.73465 42.6764C7.73465 42.6764 22.7906 53.7247 27.8814 57.1908C32.539 60.4403 44.5621 65.5311 52.1442 59.4654C60.7011 52.8581 60.3762 42.8931 60.3762 42.8931ZM47.4866 30.4368C45.3203 28.1621 45.2119 24.9126 45.2119 24.9126L44.6704 24.2627C43.8038 23.1796 42.3957 20.905 42.9373 18.1971C40.8793 21.9881 42.9373 25.021 43.9122 26.3207L44.4537 26.9706C44.4537 26.9706 44.3454 27.9455 44.887 28.7037L47.4866 30.4368Z" fill="#EBA352"/>
<path d="M36.4383 0L39.6878 13.2145L46.0784 0.974843L36.4383 0ZM52.4691 3.89937L47.5949 14.8393L58.968 11.9147L52.4691 3.89937ZM28.2063 1.62474L31.2392 13.5395L21.2741 7.14885L28.2063 1.62474Z" fill="#42ADE2"/>
</svg>
