<svg width="41" height="41" viewBox="0 0 41 41" fill="none" xmlns="http://www.w3.org/2000/svg">
    <path
        d="M35.5 35.5L25.5 25.5M28.8333 17.1667C28.8333 18.6988 28.5316 20.2158 27.9453 21.6313C27.359 23.0468 26.4996 24.3329 25.4162 25.4162C24.3329 26.4996 23.0468 27.359 21.6313 27.9453C20.2158 28.5316 18.6988 28.8333 17.1667 28.8333C15.6346 28.8333 14.1175 28.5316 12.702 27.9453C11.2866 27.359 10.0004 26.4996 8.91709 25.4162C7.83374 24.3329 6.97438 23.0468 6.38807 21.6313C5.80177 20.2158 5.5 18.6988 5.5 17.1667C5.5 14.0725 6.72916 11.105 8.91709 8.91709C11.105 6.72916 14.0725 5.5 17.1667 5.5C20.2609 5.5 23.2283 6.72916 25.4162 8.91709C27.6042 11.105 28.8333 14.0725 28.8333 17.1667Z"
        stroke="black" stroke-width="2" stroke-linecap="round" stroke-linejoin="round" />
</svg>