<svg width="60" height="60" viewBox="0 0 60 60" fill="none" xmlns="http://www.w3.org/2000/svg">
    <path
        d="M12.8025 44.51C18.0485 41.5448 23.9739 39.9909 30 40C36.25 40 42.1175 41.6375 47.1975 44.51M37.5 25C37.5 26.9891 36.7098 28.8968 35.3033 30.3033C33.8968 31.7098 31.9891 32.5 30 32.5C28.0109 32.5 26.1032 31.7098 24.6967 30.3033C23.2902 28.8968 22.5 26.9891 22.5 25C22.5 23.0109 23.2902 21.1032 24.6967 19.6967C26.1032 18.2902 28.0109 17.5 30 17.5C31.9891 17.5 33.8968 18.2902 35.3033 19.6967C36.7098 21.1032 37.5 23.0109 37.5 25ZM52.5 30C52.5 32.9547 51.918 35.8806 50.7873 38.6104C49.6566 41.3402 47.9992 43.8206 45.9099 45.9099C43.8206 47.9992 41.3402 49.6566 38.6104 50.7873C35.8806 51.918 32.9547 52.5 30 52.5C27.0453 52.5 24.1194 51.918 21.3896 50.7873C18.6598 49.6566 16.1794 47.9992 14.0901 45.9099C12.0008 43.8206 10.3434 41.3402 9.21271 38.6104C8.08198 35.8806 7.5 32.9547 7.5 30C7.5 24.0326 9.87053 18.3097 14.0901 14.0901C18.3097 9.87053 24.0326 7.5 30 7.5C35.9674 7.5 41.6903 9.87053 45.9099 14.0901C50.1295 18.3097 52.5 24.0326 52.5 30Z"
        stroke="black" stroke-width="2" stroke-linecap="round" stroke-linejoin="round" />
</svg>